<!-- Taille et gastre d'ouvrière, vue latérale · dessin composite d’EAnathos d’après Bolton (1994, fig. 530 et 531), licence CC BY-NC 4.0 (https://creativecommons.org/licenses/by-nc/4.0/) -->
<svg xmlns="http://www.w3.org/2000/svg" viewBox="52 102 486 376" role="group" aria-label="Planche : taille et gastre d'ouvrière">
  <defs>
    <pattern id="gastre-pointille" width="4" height="4" patternUnits="userSpaceOnUse"><rect width="4" height="4" fill="#d6d6d6"/><circle cx="1" cy="1" r="0.55" fill="#000000"/><circle cx="3" cy="3" r="0.55" fill="#000000"/></pattern>
  </defs>

  <!-- Aiguillon, sous l'hypopygium et le pygidium. data-part = PartId de parts.ts -->
  <path data-part="aiguillon" style="fill:#d6d6d6;stroke:#000000;stroke-width:1.1;stroke-linejoin:round" d="M438.0 404.0 C445.0 418.0 456.0 438.0 478.0 470.0 C462.0 444.0 452.0 426.0 445.0 408.0 Z"/>
  <path data-part="aiguillon" style="fill:none;stroke:transparent;stroke-width:7;stroke-linejoin:round" d="M438.0 404.0 C445.0 418.0 456.0 438.0 478.0 470.0 C462.0 444.0 452.0 426.0 445.0 408.0 Z"/>

  <!-- Silhouette sous les surfaces : pas de liseré entre deux sclérites -->
  <path pointer-events="none" style="fill:#d6d6d6;stroke:none" d="M112.0 192.0 C112.2 187.5 112.0 172.5 113.0 165.0 C114.0 157.5 115.7 152.3 118.0 147.0 C120.3 141.7 123.3 137.2 127.0 133.0 C130.7 128.8 134.5 125.0 140.0 122.0 C145.5 119.0 151.7 116.7 160.0 115.0 C168.3 113.3 180.5 112.8 190.0 112.0 C199.5 111.2 210.3 110.0 217.0 110.0 C223.7 110.0 227.2 110.3 230.0 112.0 C232.8 113.7 233.2 113.7 234.0 120.0 C234.8 126.3 234.3 144.7 235.0 150.0 C235.7 155.3 237.5 151.7 238.0 152.0 C239.7 152.7 244.8 154.3 248.0 156.0 C251.2 157.7 255.5 161.0 257.0 162.0 C257.3 159.7 257.2 151.8 259.0 148.0 C260.8 144.2 263.7 141.3 268.0 139.0 C272.3 136.7 279.7 135.3 285.0 134.0 C290.3 132.7 292.5 132.2 300.0 131.0 C307.5 129.8 320.0 127.3 330.0 127.0 C340.0 126.7 351.2 127.5 360.0 129.0 C368.8 130.5 376.7 133.2 383.0 136.0 C389.3 138.8 394.3 142.7 398.0 146.0 C401.7 149.3 403.7 152.8 405.0 156.0 C406.3 159.2 405.8 163.5 406.0 165.0 C407.0 165.7 411.0 168.3 412.0 169.0 C413.3 169.3 418.7 170.7 420.0 171.0 C423.3 170.2 431.7 164.5 440.0 166.0 C448.3 167.5 460.8 173.5 470.0 180.0 C479.2 186.5 487.8 195.8 495.0 205.0 C502.2 214.2 508.3 225.0 513.0 235.0 C517.7 245.0 520.8 253.8 523.0 265.0 C525.2 276.2 525.5 295.8 526.0 302.0 C525.3 305.3 523.5 315.7 522.0 322.0 C520.5 328.3 517.8 337.0 517.0 340.0 C516.5 343.0 515.2 352.2 514.0 358.0 C512.8 363.8 510.7 372.2 510.0 375.0 C508.8 378.3 506.7 387.5 503.0 395.0 C499.3 402.5 493.2 413.8 488.0 420.0 C482.8 426.2 476.0 430.0 472.0 432.0 C468.0 434.0 465.3 432.0 464.0 432.0 C462.5 430.3 458.0 425.3 455.0 422.0 C452.0 418.7 448.7 415.3 446.0 412.0 C443.3 408.7 440.2 403.7 439.0 402.0 C439.2 403.7 440.2 408.3 440.0 412.0 C439.8 415.7 439.2 419.8 438.0 424.0 C436.8 428.2 434.8 433.5 433.0 437.0 C431.2 440.5 428.0 443.7 427.0 445.0 C426.3 443.8 425.2 442.2 423.0 438.0 C420.8 433.8 417.8 427.2 414.0 420.0 C410.2 412.8 403.7 401.7 400.0 395.0 C396.3 388.3 393.3 382.5 392.0 380.0 C390.7 378.7 386.5 375.0 384.0 372.0 C381.5 369.0 378.2 363.7 377.0 362.0 C376.7 360.8 375.8 357.7 375.0 355.0 C374.2 352.3 372.5 347.5 372.0 346.0 C370.0 343.5 363.3 335.2 360.0 331.0 C356.7 326.8 353.3 322.7 352.0 321.0 C350.3 321.2 345.3 322.5 342.0 322.0 C338.7 321.5 333.7 318.7 332.0 318.0 C331.0 317.5 327.0 315.5 326.0 315.0 C321.7 313.8 309.0 312.8 300.0 308.0 C291.0 303.2 280.0 293.7 272.0 286.0 C264.0 278.3 258.7 267.0 252.0 262.0 C245.3 257.0 236.7 257.8 232.0 256.0 C227.3 254.2 224.7 253.3 224.0 251.0 C223.3 248.7 225.7 245.2 228.0 242.0 C230.3 238.8 234.7 235.2 238.0 232.0 C241.3 228.8 246.3 224.5 248.0 223.0 C246.2 222.7 240.8 221.8 237.0 221.0 C233.2 220.2 227.0 218.5 225.0 218.0 C222.8 218.3 217.8 218.0 212.0 220.0 C206.2 222.0 196.5 226.5 190.0 230.0 C183.5 233.5 178.0 237.2 173.0 241.0 C168.0 244.8 162.2 251.0 160.0 253.0 C158.3 253.7 153.7 255.8 150.0 257.0 C146.3 258.2 140.7 261.2 138.0 260.0 C135.3 258.8 135.0 254.0 134.0 250.0 C133.0 246.0 132.8 239.7 132.0 236.0 C131.2 232.3 129.5 229.3 129.0 228.0 C128.5 226.7 127.2 223.3 126.0 220.0 C124.8 216.7 123.5 211.5 122.0 208.0 C120.5 204.5 118.7 201.7 117.0 199.0 C115.3 196.3 112.8 193.2 112.0 192.0 Z"/>

  <!-- Sclérites : surfaces sans contour, bordées par les traits plus bas. Présclérite en pointillé (fig. 531) -->
  <path data-part="petiole" style="fill:#d6d6d6;stroke:none" d="M112.0 192.0 C112.2 187.5 112.0 172.5 113.0 165.0 C114.0 157.5 115.7 152.3 118.0 147.0 C120.3 141.7 123.3 137.2 127.0 133.0 C130.7 128.8 134.5 125.0 140.0 122.0 C145.5 119.0 151.7 116.7 160.0 115.0 C168.3 113.3 180.5 112.8 190.0 112.0 C199.5 111.2 210.3 110.0 217.0 110.0 C223.7 110.0 227.2 110.3 230.0 112.0 C232.8 113.7 233.2 113.7 234.0 120.0 C234.8 126.3 234.3 144.7 235.0 150.0 C235.7 155.3 237.5 151.7 238.0 152.0 C237.2 157.2 234.7 173.3 233.0 183.0 C231.3 192.7 229.3 204.2 228.0 210.0 C226.7 215.8 225.5 216.7 225.0 218.0 C222.8 218.3 217.8 218.0 212.0 220.0 C206.2 222.0 196.5 226.5 190.0 230.0 C183.5 233.5 178.0 237.2 173.0 241.0 C168.0 244.8 162.2 251.0 160.0 253.0 C158.5 251.8 154.3 248.7 151.0 246.0 C147.7 243.3 143.7 240.0 140.0 237.0 C136.3 234.0 130.8 229.5 129.0 228.0 C128.5 226.7 127.2 223.3 126.0 220.0 C124.8 216.7 123.5 211.5 122.0 208.0 C120.5 204.5 118.7 201.7 117.0 199.0 C115.3 196.3 112.8 193.2 112.0 192.0 Z"/>
  <path data-part="processus-subpetiolaire" style="fill:#d6d6d6;stroke:none" d="M160.0 253.0 C158.3 253.7 153.7 255.8 150.0 257.0 C146.3 258.2 140.7 261.2 138.0 260.0 C135.3 258.8 135.0 254.0 134.0 250.0 C133.0 246.0 132.8 239.7 132.0 236.0 C131.2 232.3 129.5 229.3 129.0 228.0 C130.8 229.5 136.3 234.0 140.0 237.0 C143.7 240.0 147.7 243.3 151.0 246.0 C154.3 248.7 158.5 251.8 160.0 253.0 Z"/>
  <path data-part="helcium" style="fill:#d6d6d6;stroke:none" d="M238.0 152.0 C237.2 157.2 234.7 173.3 233.0 183.0 C231.3 192.7 229.3 204.2 228.0 210.0 C226.7 215.8 225.5 216.7 225.0 218.0 C227.0 218.5 233.2 220.2 237.0 221.0 C240.8 221.8 246.2 222.7 248.0 223.0 C248.3 220.8 249.2 216.0 250.0 210.0 C250.8 204.0 251.8 195.0 253.0 187.0 C254.2 179.0 256.3 166.2 257.0 162.0 C255.5 161.0 251.2 157.7 248.0 156.0 C244.8 154.3 239.7 152.7 238.0 152.0 Z"/>
  <path data-part="tergite" style="fill:#d6d6d6;stroke:none" d="M257.0 162.0 C257.3 159.7 257.2 151.8 259.0 148.0 C260.8 144.2 263.7 141.3 268.0 139.0 C272.3 136.7 279.7 135.3 285.0 134.0 C290.3 132.7 292.5 132.2 300.0 131.0 C307.5 129.8 320.0 127.3 330.0 127.0 C340.0 126.7 351.2 127.5 360.0 129.0 C368.8 130.5 376.7 133.2 383.0 136.0 C389.3 138.8 394.3 142.7 398.0 146.0 C401.7 149.3 403.7 152.8 405.0 156.0 C406.3 159.2 405.8 163.5 406.0 165.0 C402.3 170.0 391.0 184.8 384.0 195.0 C377.0 205.2 368.5 217.3 364.0 226.0 C359.5 234.7 358.2 243.5 357.0 247.0 C354.2 247.3 347.8 250.3 340.0 249.0 C332.2 247.7 320.0 242.7 310.0 239.0 C300.0 235.3 290.3 229.7 280.0 227.0 C269.7 224.3 253.3 223.7 248.0 223.0 C248.3 220.8 249.2 216.0 250.0 210.0 C250.8 204.0 251.8 195.0 253.0 187.0 C254.2 179.0 256.3 166.2 257.0 162.0 Z"/>
  <path data-part="sternite" style="fill:#d6d6d6;stroke:none" d="M248.0 223.0 C253.3 223.7 269.7 224.3 280.0 227.0 C290.3 229.7 300.0 235.3 310.0 239.0 C320.0 242.7 332.2 247.7 340.0 249.0 C347.8 250.3 354.2 247.3 357.0 247.0 C354.8 251.2 347.8 263.7 344.0 272.0 C340.2 280.3 337.0 289.8 334.0 297.0 C331.0 304.2 327.3 312.0 326.0 315.0 C321.7 313.8 309.0 312.8 300.0 308.0 C291.0 303.2 280.0 293.7 272.0 286.0 C264.0 278.3 258.7 267.0 252.0 262.0 C245.3 257.0 236.7 257.8 232.0 256.0 C227.3 254.2 224.7 253.3 224.0 251.0 C223.3 248.7 225.7 245.2 228.0 242.0 C230.3 238.8 234.7 235.2 238.0 232.0 C241.3 228.8 246.3 224.5 248.0 223.0 Z"/>
  <path data-part="presclerite" style="fill:url(#gastre-pointille);stroke:none" d="M406.0 165.0 C407.0 165.7 411.0 168.3 412.0 169.0 C408.3 174.2 397.0 189.8 390.0 200.0 C383.0 210.2 374.5 221.5 370.0 230.0 C365.5 238.5 364.2 247.5 363.0 251.0 C360.8 255.0 353.8 266.8 350.0 275.0 C346.2 283.2 343.0 292.8 340.0 300.0 C337.0 307.2 333.3 315.0 332.0 318.0 C331.0 317.5 327.0 315.5 326.0 315.0 C327.3 312.0 331.0 304.2 334.0 297.0 C337.0 289.8 340.2 280.3 344.0 272.0 C347.8 263.7 354.8 251.2 357.0 247.0 C358.2 243.5 359.5 234.7 364.0 226.0 C368.5 217.3 377.0 205.2 384.0 195.0 C391.0 184.8 402.3 170.0 406.0 165.0 Z"/>
  <path data-part="constriction" style="fill:#d6d6d6;stroke:none" d="M412.0 169.0 C413.3 169.3 418.7 170.7 420.0 171.0 C416.2 176.5 404.2 193.8 397.0 204.0 C389.8 214.2 381.3 224.2 377.0 232.0 C372.7 239.8 372.0 247.8 371.0 251.0 C369.7 251.0 364.3 251.0 363.0 251.0 C364.2 247.5 365.5 238.5 370.0 230.0 C374.5 221.5 383.0 210.2 390.0 200.0 C397.0 189.8 408.3 174.2 412.0 169.0 Z"/>
  <path data-part="constriction" style="fill:#d6d6d6;stroke:none" d="M363.0 251.0 C364.3 251.0 369.7 251.0 371.0 251.0 C370.3 255.0 368.8 266.8 367.0 275.0 C365.2 283.2 362.5 292.3 360.0 300.0 C357.5 307.7 353.3 317.5 352.0 321.0 C350.3 321.2 345.3 322.5 342.0 322.0 C338.7 321.5 333.7 318.7 332.0 318.0 C333.3 315.0 337.0 307.2 340.0 300.0 C343.0 292.8 346.2 283.2 350.0 275.0 C353.8 266.8 360.8 255.0 363.0 251.0 Z"/>
  <path data-part="tergite" style="fill:#d6d6d6;stroke:none" d="M420.0 171.0 C423.3 170.2 431.7 164.5 440.0 166.0 C448.3 167.5 460.8 173.5 470.0 180.0 C479.2 186.5 487.8 195.8 495.0 205.0 C502.2 214.2 508.3 225.0 513.0 235.0 C517.7 245.0 520.8 253.8 523.0 265.0 C525.2 276.2 525.5 295.8 526.0 302.0 C521.7 304.2 509.3 311.2 500.0 315.0 C490.7 318.8 480.8 322.2 470.0 325.0 C459.2 327.8 440.8 330.8 435.0 332.0 C433.3 330.0 430.8 327.8 425.0 320.0 C419.2 312.2 406.7 294.3 400.0 285.0 C393.3 275.7 389.8 269.7 385.0 264.0 C380.2 258.3 373.3 253.2 371.0 251.0 C372.0 247.8 372.7 239.8 377.0 232.0 C381.3 224.2 389.8 214.2 397.0 204.0 C404.2 193.8 416.2 176.5 420.0 171.0 Z"/>
  <path data-part="sternite" style="fill:#d6d6d6;stroke:none" d="M371.0 251.0 C373.3 253.2 380.2 258.3 385.0 264.0 C389.8 269.7 393.3 275.7 400.0 285.0 C406.7 294.3 419.2 312.2 425.0 320.0 C430.8 327.8 433.3 330.0 435.0 332.0 C429.2 333.8 410.5 340.7 400.0 343.0 C389.5 345.3 376.7 345.5 372.0 346.0 C370.0 343.5 363.3 335.2 360.0 331.0 C356.7 326.8 353.3 322.7 352.0 321.0 C353.3 317.5 357.5 307.7 360.0 300.0 C362.5 292.3 365.2 283.2 367.0 275.0 C368.8 266.8 370.3 255.0 371.0 251.0 Z"/>
  <path data-part="sternite" style="fill:#d6d6d6;stroke:none" d="M372.0 346.0 C376.7 345.5 389.5 345.3 400.0 343.0 C410.5 340.7 429.2 333.8 435.0 332.0 C436.2 333.5 440.0 338.2 442.0 341.0 C444.0 343.8 446.2 347.7 447.0 349.0 C441.7 350.3 426.7 354.8 415.0 357.0 C403.3 359.2 383.3 361.2 377.0 362.0 C376.7 360.8 375.8 357.7 375.0 355.0 C374.2 352.3 372.5 347.5 372.0 346.0 Z"/>
  <path data-part="tergite" style="fill:#d6d6d6;stroke:none" d="M435.0 332.0 C440.8 330.8 459.2 327.8 470.0 325.0 C480.8 322.2 490.7 318.8 500.0 315.0 C509.3 311.2 521.7 304.2 526.0 302.0 C525.3 305.3 523.5 315.7 522.0 322.0 C520.5 328.3 517.8 337.0 517.0 340.0 C509.2 341.2 481.7 345.5 470.0 347.0 C458.3 348.5 450.8 348.7 447.0 349.0 C446.2 347.7 444.0 343.8 442.0 341.0 C440.0 338.2 436.2 333.5 435.0 332.0 Z"/>
  <path data-part="sternite" style="fill:#d6d6d6;stroke:none" d="M377.0 362.0 C383.3 361.2 403.3 359.2 415.0 357.0 C426.7 354.8 441.7 350.3 447.0 349.0 C446.3 351.0 442.5 357.2 443.0 361.0 C443.5 364.8 448.8 370.2 450.0 372.0 C448.3 372.0 443.8 371.3 440.0 372.0 C436.2 372.7 429.2 375.3 427.0 376.0 C424.2 376.3 415.8 377.3 410.0 378.0 C404.2 378.7 395.0 379.7 392.0 380.0 C390.7 378.7 386.5 375.0 384.0 372.0 C381.5 369.0 378.2 363.7 377.0 362.0 Z"/>
  <path data-part="tergite" style="fill:#d6d6d6;stroke:none" d="M447.0 349.0 C450.8 348.7 458.3 348.5 470.0 347.0 C481.7 345.5 509.2 341.2 517.0 340.0 C516.5 343.0 515.2 352.2 514.0 358.0 C512.8 363.8 510.7 372.2 510.0 375.0 C504.2 375.0 485.0 375.5 475.0 375.0 C465.0 374.5 454.2 372.5 450.0 372.0 C448.8 370.2 443.5 364.8 443.0 361.0 C442.5 357.2 446.3 351.0 447.0 349.0 Z"/>
  <path data-part="hypopygium" style="fill:#d6d6d6;stroke:none" d="M392.0 380.0 C395.0 379.7 404.2 378.7 410.0 378.0 C415.8 377.3 424.2 376.3 427.0 376.0 C427.5 378.3 428.0 385.7 430.0 390.0 C432.0 394.3 437.5 400.0 439.0 402.0 C439.2 403.7 440.2 408.3 440.0 412.0 C439.8 415.7 439.2 419.8 438.0 424.0 C436.8 428.2 434.8 433.5 433.0 437.0 C431.2 440.5 428.0 443.7 427.0 445.0 C426.3 443.8 425.2 442.2 423.0 438.0 C420.8 433.8 417.8 427.2 414.0 420.0 C410.2 412.8 403.7 401.7 400.0 395.0 C396.3 388.3 393.3 382.5 392.0 380.0 Z"/>
  <path data-part="pygidium" style="fill:#d6d6d6;stroke:none" d="M427.0 376.0 C429.2 375.3 436.2 372.7 440.0 372.0 C443.8 371.3 448.3 372.0 450.0 372.0 C454.2 372.5 465.0 374.5 475.0 375.0 C485.0 375.5 504.2 375.0 510.0 375.0 C508.8 378.3 506.7 387.5 503.0 395.0 C499.3 402.5 493.2 413.8 488.0 420.0 C482.8 426.2 476.0 430.0 472.0 432.0 C468.0 434.0 465.3 432.0 464.0 432.0 C462.5 430.3 458.0 425.3 455.0 422.0 C452.0 418.7 448.7 415.3 446.0 412.0 C443.3 408.7 440.2 403.7 439.0 402.0 C437.5 400.0 432.0 394.3 430.0 390.0 C428.0 385.7 427.5 378.3 427.0 376.0 Z"/>

  <!-- Décor : frontières, hachures du helcium et de l'étranglement, contour -->
  <path pointer-events="none" style="fill:none;stroke:#000000;stroke-width:1.1;stroke-linejoin:round;stroke-linecap:round" d="M238.0 152.0 C237.2 157.2 234.7 173.3 233.0 183.0 C231.3 192.7 229.3 204.2 228.0 210.0 C226.7 215.8 225.5 216.7 225.0 218.0 M257.0 162.0 C256.3 166.2 254.2 179.0 253.0 187.0 C251.8 195.0 250.8 204.0 250.0 210.0 C249.2 216.0 248.3 220.8 248.0 223.0 M248.0 223.0 C253.3 223.7 269.7 224.3 280.0 227.0 C290.3 229.7 300.0 235.3 310.0 239.0 C320.0 242.7 332.2 247.7 340.0 249.0 C347.8 250.3 354.2 247.3 357.0 247.0 M406.0 165.0 C402.3 170.0 391.0 184.8 384.0 195.0 C377.0 205.2 368.5 217.3 364.0 226.0 C359.5 234.7 358.2 243.5 357.0 247.0 M357.0 247.0 C354.8 251.2 347.8 263.7 344.0 272.0 C340.2 280.3 337.0 289.8 334.0 297.0 C331.0 304.2 327.3 312.0 326.0 315.0 M412.0 169.0 C408.3 174.2 397.0 189.8 390.0 200.0 C383.0 210.2 374.5 221.5 370.0 230.0 C365.5 238.5 364.2 247.5 363.0 251.0 M420.0 171.0 C416.2 176.5 404.2 193.8 397.0 204.0 C389.8 214.2 381.3 224.2 377.0 232.0 C372.7 239.8 372.0 247.8 371.0 251.0 M363.0 251.0 C360.8 255.0 353.8 266.8 350.0 275.0 C346.2 283.2 343.0 292.8 340.0 300.0 C337.0 307.2 333.3 315.0 332.0 318.0 M371.0 251.0 C370.3 255.0 368.8 266.8 367.0 275.0 C365.2 283.2 362.5 292.3 360.0 300.0 C357.5 307.7 353.3 317.5 352.0 321.0 M371.0 251.0 C373.3 253.2 380.2 258.3 385.0 264.0 C389.8 269.7 393.3 275.7 400.0 285.0 C406.7 294.3 419.2 312.2 425.0 320.0 C430.8 327.8 433.3 330.0 435.0 332.0 M526.0 302.0 C521.7 304.2 509.3 311.2 500.0 315.0 C490.7 318.8 480.8 322.2 470.0 325.0 C459.2 327.8 440.8 330.8 435.0 332.0 M435.0 332.0 C429.2 333.8 410.5 340.7 400.0 343.0 C389.5 345.3 376.7 345.5 372.0 346.0 M435.0 332.0 C436.2 333.5 440.0 338.2 442.0 341.0 C444.0 343.8 446.2 347.7 447.0 349.0 M377.0 362.0 C383.3 361.2 403.3 359.2 415.0 357.0 C426.7 354.8 441.7 350.3 447.0 349.0 M447.0 349.0 C450.8 348.7 458.3 348.5 470.0 347.0 C481.7 345.5 509.2 341.2 517.0 340.0 M447.0 349.0 C446.3 351.0 442.5 357.2 443.0 361.0 C443.5 364.8 448.8 370.2 450.0 372.0 M392.0 380.0 C395.0 379.7 404.2 378.7 410.0 378.0 C415.8 377.3 424.2 376.3 427.0 376.0 M427.0 376.0 C429.2 375.3 436.2 372.7 440.0 372.0 C443.8 371.3 448.3 372.0 450.0 372.0 M450.0 372.0 C454.2 372.5 465.0 374.5 475.0 375.0 C485.0 375.5 504.2 375.0 510.0 375.0 M427.0 376.0 C427.5 378.3 428.0 385.7 430.0 390.0 C432.0 394.3 437.5 400.0 439.0 402.0"/>
  <path pointer-events="none" style="fill:none;stroke:#000000;stroke-width:1.1;stroke-linejoin:round;stroke-linecap:round" d="M137 217 C143 213 150 210 157 208 C167 206 177 207 187 210 C195 212 203 215 212 220"/>
  <path pointer-events="none" style="fill:none;stroke:#000000;stroke-width:0.8;stroke-linecap:round" d="M239.1 160.9 L253.7 167.3 M237.2 172.8 L252.0 177.4 M235.4 183.5 L250.6 186.5 M233.8 193.0 L249.4 194.7 M232.0 202.8 L248.3 203.3 M230.6 210.0 L247.4 210.0 M229.5 214.4 L246.5 215.3 M228.4 217.1 L245.7 219.7 M407.5 175.3 L415.3 177.8 M401.0 184.4 L408.4 187.7 M394.0 194.2 L401.1 198.1 M387.9 203.1 L394.8 207.0 M381.8 211.7 L388.7 215.3 M376.5 219.5 L383.3 222.4 M371.5 227.4 L378.4 229.6 M367.9 234.5 L375.0 236.1 M365.6 241.2 L373.0 242.2 M364.1 247.0 L371.8 247.4 M358.9 258.2 L369.9 258.2 M353.3 268.4 L368.3 268.4 M348.6 278.1 L366.3 278.1 M344.7 287.9 L363.8 287.7 M341.1 297.2 L360.9 297.1 M337.7 305.4 L357.9 306.0 M334.3 312.9 L354.5 314.8"/>
  <path pointer-events="none" style="fill:none;stroke:#000000;stroke-width:1.1;stroke-linejoin:round;stroke-linecap:round" d="M112.0 192.0 C112.2 187.5 112.0 172.5 113.0 165.0 C114.0 157.5 115.7 152.3 118.0 147.0 C120.3 141.7 123.3 137.2 127.0 133.0 C130.7 128.8 134.5 125.0 140.0 122.0 C145.5 119.0 151.7 116.7 160.0 115.0 C168.3 113.3 180.5 112.8 190.0 112.0 C199.5 111.2 210.3 110.0 217.0 110.0 C223.7 110.0 227.2 110.3 230.0 112.0 C232.8 113.7 233.2 113.7 234.0 120.0 C234.8 126.3 234.3 144.7 235.0 150.0 C235.7 155.3 237.5 151.7 238.0 152.0 C239.7 152.7 244.8 154.3 248.0 156.0 C251.2 157.7 255.5 161.0 257.0 162.0 C257.3 159.7 257.2 151.8 259.0 148.0 C260.8 144.2 263.7 141.3 268.0 139.0 C272.3 136.7 279.7 135.3 285.0 134.0 C290.3 132.7 292.5 132.2 300.0 131.0 C307.5 129.8 320.0 127.3 330.0 127.0 C340.0 126.7 351.2 127.5 360.0 129.0 C368.8 130.5 376.7 133.2 383.0 136.0 C389.3 138.8 394.3 142.7 398.0 146.0 C401.7 149.3 403.7 152.8 405.0 156.0 C406.3 159.2 405.8 163.5 406.0 165.0 C407.0 165.7 411.0 168.3 412.0 169.0 C413.3 169.3 418.7 170.7 420.0 171.0 C423.3 170.2 431.7 164.5 440.0 166.0 C448.3 167.5 460.8 173.5 470.0 180.0 C479.2 186.5 487.8 195.8 495.0 205.0 C502.2 214.2 508.3 225.0 513.0 235.0 C517.7 245.0 520.8 253.8 523.0 265.0 C525.2 276.2 525.5 295.8 526.0 302.0 C525.3 305.3 523.5 315.7 522.0 322.0 C520.5 328.3 517.8 337.0 517.0 340.0 C516.5 343.0 515.2 352.2 514.0 358.0 C512.8 363.8 510.7 372.2 510.0 375.0 C508.8 378.3 506.7 387.5 503.0 395.0 C499.3 402.5 493.2 413.8 488.0 420.0 C482.8 426.2 476.0 430.0 472.0 432.0 C468.0 434.0 465.3 432.0 464.0 432.0 C462.5 430.3 458.0 425.3 455.0 422.0 C452.0 418.7 448.7 415.3 446.0 412.0 C443.3 408.7 440.2 403.7 439.0 402.0 C439.2 403.7 440.2 408.3 440.0 412.0 C439.8 415.7 439.2 419.8 438.0 424.0 C436.8 428.2 434.8 433.5 433.0 437.0 C431.2 440.5 428.0 443.7 427.0 445.0 C426.3 443.8 425.2 442.2 423.0 438.0 C420.8 433.8 417.8 427.2 414.0 420.0 C410.2 412.8 403.7 401.7 400.0 395.0 C396.3 388.3 393.3 382.5 392.0 380.0 C390.7 378.7 386.5 375.0 384.0 372.0 C381.5 369.0 378.2 363.7 377.0 362.0 C376.7 360.8 375.8 357.7 375.0 355.0 C374.2 352.3 372.5 347.5 372.0 346.0 C370.0 343.5 363.3 335.2 360.0 331.0 C356.7 326.8 353.3 322.7 352.0 321.0 C350.3 321.2 345.3 322.5 342.0 322.0 C338.7 321.5 333.7 318.7 332.0 318.0 C331.0 317.5 327.0 315.5 326.0 315.0 C321.7 313.8 309.0 312.8 300.0 308.0 C291.0 303.2 280.0 293.7 272.0 286.0 C264.0 278.3 258.7 267.0 252.0 262.0 C245.3 257.0 236.7 257.8 232.0 256.0 C227.3 254.2 224.7 253.3 224.0 251.0 C223.3 248.7 225.7 245.2 228.0 242.0 C230.3 238.8 234.7 235.2 238.0 232.0 C241.3 228.8 246.3 224.5 248.0 223.0 C246.2 222.7 240.8 221.8 237.0 221.0 C233.2 220.2 227.0 218.5 225.0 218.0 C222.8 218.3 217.8 218.0 212.0 220.0 C206.2 222.0 196.5 226.5 190.0 230.0 C183.5 233.5 178.0 237.2 173.0 241.0 C168.0 244.8 162.2 251.0 160.0 253.0 C158.3 253.7 153.7 255.8 150.0 257.0 C146.3 258.2 140.7 261.2 138.0 260.0 C135.3 258.8 135.0 254.0 134.0 250.0 C133.0 246.0 132.8 239.7 132.0 236.0 C131.2 232.3 129.5 229.3 129.0 228.0 C128.5 226.7 127.2 223.3 126.0 220.0 C124.8 216.7 123.5 211.5 122.0 208.0 C120.5 204.5 118.7 201.7 117.0 199.0 C115.3 196.3 112.8 193.2 112.0 192.0 Z"/>

  <!-- Décor : arrière du propodéum (déclivité, lobe, bulle et orifice de la glande métapleurale) et métacoxa, par-dessus l'avant du pétiole -->
  <path pointer-events="none" style="fill:none;stroke:#000000;stroke-width:1.1;stroke-linejoin:round;stroke-linecap:round" d="M60 125 C66 139 73 153 78 165 C83 177 88 188 93 197 C100 199 108 198 113 199 C120 202 124 210 125 217 C126 228 122 242 117 250 C114 254 112 257 110 258 C103 260 92 262 85 265 M98 263 C108 270 117 280 121 289 C125 298 127 310 127 320"/>
  <path pointer-events="none" style="fill:none;stroke:#000000;stroke-width:0.9;stroke-dasharray:4 3;stroke-linecap:round" d="M73 206 C80 207 90 209 97 214 C104 220 109 229 110 237 C110 243 109 247 108 250"/>
  <ellipse pointer-events="none" style="fill:#ffffff;stroke:#000000;stroke-width:1" cx="98" cy="250" rx="4.5" ry="2.6"/>

  <!-- Spiracles du pétiole, de l'A3 et de l'A4, avec zone de clic élargie -->
  <circle data-part="spiracles-abdominaux" style="fill:#ffffff;stroke:#000000;stroke-width:1" cx="143" cy="208" r="2.8"/>
  <circle data-part="spiracles-abdominaux" style="fill:none;stroke:transparent;stroke-width:8" cx="143" cy="208" r="2.8"/>
  <circle data-part="spiracles-abdominaux" style="fill:#ffffff;stroke:#000000;stroke-width:1" cx="265" cy="217" r="2.8"/>
  <circle data-part="spiracles-abdominaux" style="fill:none;stroke:transparent;stroke-width:8" cx="265" cy="217" r="2.8"/>
  <circle data-part="spiracles-abdominaux" style="fill:#ffffff;stroke:#000000;stroke-width:1" cx="385" cy="250" r="2.8"/>
  <circle data-part="spiracles-abdominaux" style="fill:none;stroke:transparent;stroke-width:8" cx="385" cy="250" r="2.8"/>
</svg>
